<svg width="277.87500000000006" height="50.8461657038333" viewBox="0 0 370 67.70339652872089" class="looka-1j8o68f">
<g id="logo" featurekey="5TMTKC-0" transform="matrix(0.7164380550384521,0,0,0.7164380550384521,-0.8401204493844345,-1.3432133947527536)" fill="#598db2">
    <path xmlns="http://www.w3.org/2000/svg" d="M92.812,49.125c-2.345,0-4.375,1.334-5.383,3.281l-27.775-4.741c-0.092-0.628-0.235-1.234-0.43-1.82l22.734-11.268  c1.703,1.74,4.389,2.262,6.658,1.072C91.389,34.191,92.453,30.771,91,28c-1.453-2.768-4.875-3.834-7.646-2.381  c-2.172,1.143-3.273,3.49-2.957,5.785l-22.842,11.32c-0.492-0.637-1.05-1.221-1.673-1.732l18.902-26.375  c0.938,0.109,1.906,0.016,2.84-0.373c2.886-1.207,4.248-4.521,3.043-7.41c-1.204-2.885-4.521-4.246-7.406-3.042  c-2.885,1.205-4.247,4.521-3.042,7.408c0.317,0.76,0.788,1.403,1.353,1.935L52.777,39.235c-0.528-0.188-1.07-0.346-1.633-0.45  l-1.179-19.699c2-0.823,3.41-2.789,3.41-5.086c0-3.037-2.463-5.5-5.5-5.5s-5.5,2.463-5.5,5.5c0,2.541,1.726,4.673,4.066,5.305  l1.161,19.416c-0.691,0.103-1.359,0.267-1.999,0.496L24.944,12.771c0.818-1.131,1.306-2.518,1.306-4.021  c0-3.797-3.078-6.875-6.875-6.875S12.5,4.953,12.5,8.75s3.078,6.875,6.875,6.875c1.009,0,1.964-0.223,2.827-0.613l20.281,25.947  c-1.074,0.875-1.979,1.949-2.647,3.174l-18.602-6.435c0.005-0.1,0.03-0.194,0.03-0.297c0-3.223-2.614-5.84-5.84-5.84  c-3.225,0-5.839,2.617-5.839,5.84c0,3.228,2.614,5.841,5.839,5.841c1.855,0,3.489-0.882,4.558-2.229l18.715,6.473  c-0.091,0.563-0.152,1.136-0.152,1.726c0,0.078,0.01,0.153,0.011,0.231L11.63,58.19c-1-1.605-2.767-2.682-4.797-2.682  c-3.127,0-5.662,2.535-5.662,5.662c0,3.128,2.535,5.662,5.662,5.662c2.967,0,5.374-2.291,5.617-5.195l26.773-8.72  c0.554,1.49,1.428,2.82,2.546,3.905L30.218,73.656c-2.56-0.679-5.217,0.769-6.001,3.321c-0.801,2.615,0.665,5.387,3.283,6.189  c2.617,0.803,5.387-0.667,6.191-3.281c0.449-1.464,0.167-2.963-0.607-4.151l11.601-16.906c1.362,0.635,2.875,1,4.477,1  c0.207,0,0.405-0.019,0.609-0.029l2.371,23.204C49.442,83.932,47.5,86.486,47.5,89.5c0,3.797,3.078,6.875,6.875,6.875  s6.875-3.078,6.875-6.875c0-3.365-2.42-6.161-5.613-6.754L53.346,58.97c1.396-0.599,2.625-1.493,3.637-2.597l16.47,17.112  c-0.521,0.841-0.827,1.828-0.827,2.89c0,3.037,2.463,5.5,5.5,5.5s5.5-2.463,5.5-5.5s-2.463-5.5-5.5-5.5  c-0.615,0-1.205,0.105-1.758,0.292c-0.045-0.029-0.123-0.015-0.268,0.09L58.917,53.404c0.301-0.699,0.524-1.437,0.671-2.203  l27.199,4.647c0.33,3.037,2.9,5.401,6.025,5.401c3.348,0,6.062-2.714,6.062-6.062C98.875,51.84,96.16,49.125,92.812,49.125z">
    </path>
</g>
<g id="title" featurekey="7UBp9i-0" transform="matrix(2.6046512126922607,0,0,2.6046512126922607,87.92590041509729,-1.674444036713572)" fill="#579fb7">
    <path d="M7.44 20.3 c-1.94 0 -3.52 -0.42 -4.76 -1.28 s-1.86 -2.02 -1.86 -3.52 l0 -0.18 l-0.02 -0.8 l3.92 0 l0 0.9 c0 0.34 0.24 0.66 0.7 0.96 s1.1 0.46 1.94 0.46 c0.7 0 1.2 -0.1 1.52 -0.28 c0.3 -0.18 0.46 -0.42 0.46 -0.68 c0 -0.32 -0.2 -0.6 -0.58 -0.84 c-0.4 -0.24 -1.1 -0.52 -2.08 -0.86 c-0.62 -0.22 -1.14 -0.4 -1.56 -0.56 s-0.92 -0.4 -1.5 -0.72 c-0.58 -0.3 -1.06 -0.64 -1.4 -0.98 s-0.64 -0.76 -0.9 -1.28 s-0.38 -1.08 -0.38 -1.7 c0 -1.46 0.56 -2.64 1.7 -3.52 s2.6 -1.32 4.4 -1.32 c1.86 0 3.38 0.46 4.58 1.38 s1.8 2.14 1.8 3.66 l0 0.98 l-3.9 0 l0 -0.9 c0 -0.42 -0.2 -0.82 -0.62 -1.16 s-1.02 -0.5 -1.78 -0.5 c-0.62 0 -1.1 0.1 -1.42 0.3 c-0.32 0.22 -0.48 0.46 -0.48 0.76 s0.18 0.54 0.54 0.74 c0.36 0.22 1.04 0.5 2.04 0.84 l1.02 0.36 l1.08 0.44 c0.46 0.22 0.84 0.4 1.12 0.58 s0.6 0.42 0.98 0.72 s0.66 0.62 0.88 0.92 c0.2 0.3 0.38 0.68 0.54 1.1 c0.14 0.42 0.22 0.88 0.22 1.34 c0 1.48 -0.58 2.62 -1.72 3.42 c-1.14 0.82 -2.64 1.22 -4.48 1.22 z M21.28 8.24 c3.4 0 6.06 2.7 6.06 5.84 c0 3.12 -2.66 5.82 -6.06 5.82 c-1 0 -1.96 -0.22 -2.84 -0.66 l0 4.36 l-3.18 0 l0 -15.2 l3.24 0 l0 0.46 c0.86 -0.42 1.8 -0.62 2.78 -0.62 z M21.28 16.86 c1.6 0 2.82 -1.32 2.82 -2.78 c0 -1.48 -1.22 -2.8 -2.82 -2.8 c-0.78 0 -1.44 0.28 -1.98 0.8 c-0.4 0.4 -0.8 1.12 -0.8 1.64 l0 0.7 c0 0.52 0.4 1.22 0.8 1.62 c0.54 0.52 1.2 0.82 1.98 0.82 z M28.94 20.02 l3.24 0 l-0.04 -15.64 l-3.18 0 l0 0.2 z M33.78 6.199999999999999 c0 0.94 0.76 1.78 1.82 1.78 c1.04 0 1.84 -0.84 1.84 -1.78 c0 -0.92 -0.8 -1.82 -1.84 -1.82 c-1.06 0 -1.82 0.9 -1.82 1.82 z M33.980000000000004 8.42 l0 11.58 l3.24 0 l0 -11.58 l-3.24 0 z M42.22 11.16 l0 8.84 l3.24 0 l0 -3.52 c0 -1.28 -0.04 -2.58 -0.04 -3.86 l0 -1.46 l3.2 -0.04 l0 -2.74 l-3.2 0.02 l0 -4.04 l-3.18 0 l0 4.06 l-3.2 0 l0 2.74 l3.18 0 z M56.86 20.3 c-1.94 0 -3.52 -0.42 -4.76 -1.28 s-1.86 -2.02 -1.86 -3.52 l0 -0.18 l-0.02 -0.8 l3.92 0 l0 0.9 c0 0.34 0.24 0.66 0.7 0.96 s1.1 0.46 1.94 0.46 c0.7 0 1.2 -0.1 1.52 -0.28 c0.3 -0.18 0.46 -0.42 0.46 -0.68 c0 -0.32 -0.2 -0.6 -0.58 -0.84 c-0.4 -0.24 -1.1 -0.52 -2.08 -0.86 c-0.62 -0.22 -1.14 -0.4 -1.56 -0.56 s-0.92 -0.4 -1.5 -0.72 c-0.58 -0.3 -1.06 -0.64 -1.4 -0.98 s-0.64 -0.76 -0.9 -1.28 s-0.38 -1.08 -0.38 -1.7 c0 -1.46 0.56 -2.64 1.7 -3.52 s2.6 -1.32 4.4 -1.32 c1.86 0 3.38 0.46 4.58 1.38 s1.8 2.14 1.8 3.66 l0 0.98 l-3.9 0 l0 -0.9 c0 -0.42 -0.2 -0.82 -0.62 -1.16 s-1.02 -0.5 -1.78 -0.5 c-0.62 0 -1.1 0.1 -1.42 0.3 c-0.32 0.22 -0.48 0.46 -0.48 0.76 s0.18 0.54 0.54 0.74 c0.36 0.22 1.04 0.5 2.04 0.84 l1.02 0.36 l1.08 0.44 c0.46 0.22 0.84 0.4 1.12 0.58 s0.6 0.42 0.98 0.72 s0.66 0.62 0.88 0.92 c0.2 0.3 0.38 0.68 0.54 1.1 c0.14 0.42 0.22 0.88 0.22 1.34 c0 1.48 -0.58 2.62 -1.72 3.42 c-1.14 0.82 -2.64 1.22 -4.48 1.22 z M66.46 18.24 c1.16 1.1 2.54 1.72 4.2 1.72 c3.08 0 5.62 -2.2 5.98 -5.04 l0.02 -0.22 l-3.26 0 l-0.04 0.16 c-0.28 1.22 -1.36 2.04 -2.7 2.04 c-1.6 0 -2.76 -1.26 -2.76 -2.76 c0 -1.48 1.16 -2.74 2.76 -2.74 c1.2 0 2.18 0.64 2.6 1.68 l0.04 0.12 l3.32 0 l-0.04 -0.22 c-0.5 -2.66 -3.06 -4.64 -5.92 -4.64 c-3.34 0 -6 2.72 -6 5.8 c0 1.6 0.6 2.98 1.8 4.1 z  M77.83999999999999 14.16 c0 3.14 2.66 5.84 6.04 5.84 c1.02 0 1.98 -0.22 2.86 -0.66 l0 0.66 l3.18 0 l-0.02 -11.56 l-3.24 0 l0 0.52 c-0.86 -0.42 -1.8 -0.62 -2.78 -0.62 c-3.38 0 -6.04 2.7 -6.04 5.82 z M85.88 16.14 c-0.54 0.52 -1.2 0.82 -2 0.82 c-1.58 0 -2.8 -1.32 -2.8 -2.8 c0 -1.46 1.22 -2.78 2.8 -2.78 c0.8 0 1.46 0.28 2 0.8 c0.34 0.34 0.78 1.06 0.78 1.48 l0 1.02 c0 0.42 -0.44 1.1 -0.78 1.46 z M91.52 20.02 l3.24 0 l-0.04 -15.64 l-3.18 0 l0 0.2 z M96.36 14.18 c0 -3.08 2.62 -5.76 5.98 -5.76 c3.34 0 5.96 2.68 5.96 5.76 c0 0.42 -0.04 0.82 -0.12 1.2 l-8.34 0.02 c0.44 0.9 1.36 1.54 2.5 1.54 c0.78 0 1.48 -0.32 1.96 -0.8 l3.64 0 c-0.82 2.18 -3 3.82 -5.6 3.82 c-3.36 0 -5.98 -2.6 -5.98 -5.7 l0 -0.08 z M99.94 12.8 l-0.1 0.28 l5.06 0 l-0.16 -0.28 c-0.48 -0.8 -1.34 -1.36 -2.4 -1.36 s-1.94 0.56 -2.4 1.36 z">
    </path>
</g>
</svg>